<svg xmlns="http://www.w3.org/2000/svg" xmlns:xlink="http://www.w3.org/1999/xlink" width="20" height="24" viewBox="0 0 20 24">
    <defs>
        <path id="prefix__a" d="M0.105 0.5L19.105 0.5 19.105 23.5 0.105 23.5z"/>
    </defs>
    <g fill="none" fill-rule="evenodd">
        <mask id="prefix__b" fill="#fff">
            <use xlink:href="#prefix__a"/>
        </mask>
        <path fill="#FFF" d="M9.698 5.82c.495.014.971-.08 1.429-.258 2.089-.814 3.181-2.982 3.148-4.64-.002-.134-.011-.267-.018-.422-.214.032-.41.046-.598.093-1.525.367-2.699 1.202-3.47 2.553-.452.792-.703 1.633-.626 2.551.005.098.041.122.135.124m9.407 11.572c-.063.174-.124.362-.194.546-.583 1.547-1.466 2.92-2.539 4.178-.207.246-.448.467-.697.673-.492.409-1.059.656-1.714.678-.492.016-.965-.072-1.42-.254-.33-.132-.654-.28-.989-.399-1.085-.387-2.165-.336-3.233.078-.385.15-.765.315-1.157.444-.455.15-.927.21-1.407.121-.42-.076-.786-.268-1.126-.515-.423-.307-.778-.68-1.11-1.076C1.95 19.987.893 17.86.384 15.48c-.22-1.023-.324-2.056-.26-3.102.076-1.255.373-2.45 1.056-3.526.858-1.353 2.067-2.24 3.659-2.605.957-.221 1.889-.131 2.801.214.48.18.962.36 1.445.536.444.164.886.164 1.33-.003.493-.184.986-.368 1.48-.548.507-.181 1.022-.33 1.56-.371.804-.064 1.588.038 2.352.29 1.082.354 1.963.983 2.628 1.898l.05.073c-1.677 1.147-2.631 2.662-2.493 4.714.14 2.053 1.267 3.441 3.113 4.343" mask="url(#prefix__b)"/>
    </g>
</svg>