<svg xmlns="http://www.w3.org/2000/svg" width="26" height="27" viewBox="0 0 26 27">
    <g fill="none">
        <path fill="#4285F4" d="M25.976 13.578c0-.899-.073-1.803-.229-2.687H13.272v5.093h7.144c-.296 1.643-1.249 3.096-2.644 4.019v3.305h4.262c2.503-2.304 3.942-5.706 3.942-9.73z"/>
        <path fill="#34A853" d="M13.272 26.5c3.567 0 6.575-1.17 8.767-3.192l-4.262-3.305c-1.186.807-2.716 1.264-4.5 1.264-3.45 0-6.376-2.328-7.426-5.458H1.453v3.407c2.245 4.466 6.818 7.285 11.82 7.285z"/>
        <path fill="#FBBC04" d="M5.846 15.809c-.554-1.643-.554-3.421 0-5.064V7.338H1.453c-1.876 3.738-1.876 8.14 0 11.878l4.393-3.407z"/>
        <path fill="#EA4335" d="M13.272 5.283c1.886-.03 3.708.68 5.074 1.982l3.776-3.776C19.73 1.244 16.557.01 13.272.05c-5 0-9.574 2.818-11.819 7.29l4.393 3.406c1.045-3.135 3.976-5.462 7.426-5.462z"/>
    </g>
</svg>