<svg xmlns="http://www.w3.org/2000/svg" xmlns:xlink="http://www.w3.org/1999/xlink" width="62" height="57" viewBox="0 0 62 57">
    <defs>
        <path id="a" d="M.235.063h56.647V47H.235z"/>
        <path id="c" d="M0 .19h4.745v3.668H0z"/>
    </defs>
    <g fill="none" fill-rule="evenodd">
        <g transform="translate(4 5)">
            <mask id="b" fill="#fff">
                <use xlink:href="#a"/>
            </mask>
            <path fill="#1D1D1B" d="M46.424 31.293c-2.589.396-4.834 1.667-6.563 3.916-.246.32-.434.716-.58 1.108-.27.71-.057 1.288.554 1.608.196.103.417.157.632.206 1.577.357 3.144.158 4.69-.212 2.076-.498 4.02-1.366 5.572-3.06.428-.465.72-.855 1.09-1.608.368-.752.195-1.293-.56-1.637-.753-.342-2.58-.665-4.835-.32M13.04 4.274c.048-.951.122-1.902.197-2.852.02-.242.067-.49.139-.718.173-.535.475-.758.958-.583.438.157.892.381 1.233.713a22.632 22.632 0 0 1 1.931 2.152c.548.69.741 1.485.633 2.47-.437 4.065-.888 8.132-1.143 12.214-.249 3.992-.37 8-.122 12.008.097 1.566.144 3.137.219 4.705.013.298.05.594.09 1.061.225-.292.37-.453.488-.638 1.039-1.63 2.065-3.273 3.11-4.9.748-1.164 1.737-1.957 2.995-2.326 1.821-.534 3.393.072 4.78 1.351.828.763 1.589 1.622 2.349 2.473 1.247 1.399 2.468 2.828 3.701 4.24.25.284.512.553.827.892 4.598-6.984 10.948-8.593 18.238-7.438.052-.492.096-.911.15-1.404.98-.414 1.956-.425 3.002.045.024.237.07.253.067.707-.197 4.092-.36 8.185-.14 12.284.034.646.142 3.01-.205 3.14-.201.074-.494-.539-.639-.847-.986-2.1-1.48-4.364-1.792-6.69-.02-.148-.036-.3-.069-.581-4.552 4.128-9.779 5.496-15.565 5.077.724 1.164 1.413 2.226 2.055 3.322.376.64.688 1.326 1.012 2.004.114.238.295.773-.081.795-.377.02-1.4-.787-1.977-1.38-1.85-1.9-3.657-3.849-5.504-5.752a705.64 705.64 0 0 0-7.16-7.294c-1.22-1.22-2.375-1.175-3.622.06-1.416 1.4-2.515 3.105-3.641 4.782a55.94 55.94 0 0 1-1.795 2.54c-.281.37-.627.703-.992.97-.563.412-.986.288-1.3-.384-.189-.403-.296-.86-.395-1.306-.73-3.298-1.042-6.668-1.329-10.04-.226-2.634-.612-8.654-.66-9.107-1.065-.102-2.04.193-2.93.761-2.624 1.67-3.719 4.874-2.218 7.973.481.996 1.114 1.904 1.706 2.83.703 1.101 1.505 2.131 2.145 3.276 1.098 1.971.842 4.408-.514 6.178-1.436 1.878-3.3 3.07-5.269 4.08-.974.499-1.99.909-3.008 1.303-.596.231-1.224.373-1.847.506-.272.06-.859.13-.91-.169-.052-.298.462-.545.734-.7 1.178-.675 2.382-1.298 3.556-1.98 1.204-.697 2.357-1.474 3.295-2.605 1.386-1.67 1.467-3.676.43-5.515-.586-1.035-1.326-1.97-2.048-2.9-1.244-1.6-2.243-3.361-2.872-5.357-.475-1.512-.602-3.086-.185-4.636.4-1.486 1.357-2.519 2.515-3.314 2.184-1.5 4.502-1.732 6.926-.843.104.038.331.164.436.196.025.008-.209-10.414.015-14.849" mask="url(#b)"/>
        </g>
        <path fill="#1D1D1B" d="M6 29.535c-.012 1.12-.277 10.29-.217 15.106.015 1.103.002 2.209-.016 3.313-.006.383-.139 1.038-.405 1.046-.267.008-.64-.733-.843-1.178-.922-2.002-1.395-4.158-1.76-6.332-.622-3.69-.839-7.417-.734-11.165.009-.295.037-.59.054-.856 1.122-.648 2.811-.623 3.921.066"/>
        <g transform="translate(2 23)">
            <mask id="d" fill="#fff">
                <use xlink:href="#c"/>
            </mask>
            <path fill="#EC671B" d="M2.245.192C3.204.13 4.07 1.305 4.586 2.247c.335.612.139 1.132-.581 1.403-.722.271-2.702.257-3.224.073-.632-.223-1.016-.761-.62-1.43.518-.875 1.125-2.037 2.084-2.1" mask="url(#d)"/>
        </g>
    </g>
</svg>